# xmcd
#
# Track frame offsets:
#	150
#	16129
#	33456
#	54683
#	74220
#	96739
#	128697
#	140302
#	155155
#	167212
#	192230
#	203380
#	222623
#	234937
#	267211
#
# Disc length: 4143 seconds
#
# Revision: 1
# Processed by: cddbd v1.5.2PL0 Copyright (c) Steve Scherf et al.
# Submitted via: audiograbber 1.83.01
#
DISCID=e2102d0f
DTITLE=Various Artist - Blue Rose Nuggets 33
DYEAR=2008
DGENRE=
TTITLE0=Reto Burrell - I Won't Die
TTITLE1=Randall Bramblett - Sun Runs
TTITLE2=Jupiter Coyote - Somehow
TTITLE3=Waco Brothers - Make Things Happen
TTITLE4=Joseph Parsons - Heavens Above
TTITLE5=The Brandos - The Triangle Fire
TTITLE6=Big In Iowa - Catfish
TTITLE7=Julian Dawson - Brokenhearted Eyes
TTITLE8=Mic Harrison - Something To Let You Down
TTITLE9=Iain Matthews - Something Mighty
TTITLE10=Patty Hurst Shifter - She's Like A Song
TTITLE11=Blue Mountain - Midnight In Mississippi
TTITLE12=Trevor Alguire - Sarah
TTITLE13=Rich Hopkins and Luminarios - Real Cool Time
TTITLE14=Benji Hughes - Daten-CD
EXTD=
EXTT0=
EXTT1=
EXTT2=
EXTT3=
EXTT4=
EXTT5=
EXTT6=
EXTT7=
EXTT8=
EXTT9=
EXTT10=
EXTT11=
EXTT12=
EXTT13=
EXTT14=
PLAYORDER=
